<svg width="667" height="434" viewBox="0 0 667 434" fill="none" xmlns="http://www.w3.org/2000/svg">
<path d="M533.333 166.667C513.896 166.667 495.546 171.067 478.876 178.579L441.252 131.549L484.505 66.6667H533.333C551.742 66.6667 566.667 51.7415 566.667 33.3333C566.667 14.9251 551.742 0 533.333 0H433.333C414.925 0 400 14.9251 400 33.3333C400 42.8752 404.114 51.3529 410.543 57.428L382.161 100H233.333C221.631 100 210.775 106.136 204.753 116.178L170.835 172.697C158.86 169.155 146.442 166.667 133.333 166.667C59.8145 166.667 0 226.481 0 300C0 373.519 59.8145 433.333 133.333 433.333C195.276 433.333 247.024 390.676 261.932 333.333H333.333C346.956 333.333 359.212 325.033 364.29 312.386L409.709 198.82L426.994 220.426C410.274 242.704 400 270.066 400 300C400 373.519 459.814 433.333 533.333 433.333C606.852 433.333 666.667 373.519 666.667 300C666.667 226.481 606.852 166.667 533.333 166.667ZM133.333 366.667C96.5658 366.667 66.6667 336.768 66.6667 300C66.6667 263.232 96.5658 233.333 133.333 233.333C170.101 233.333 200 263.232 200 300C200 336.768 170.101 366.667 133.333 366.667ZM310.758 266.667H261.932C255.963 243.709 244.407 223.002 228.249 206.586L252.197 166.667H350.757L310.758 266.667ZM533.333 366.667C496.566 366.667 466.667 336.768 466.667 300C466.667 263.232 496.566 233.333 533.333 233.333C570.101 233.333 600 263.232 600 300C600 336.768 570.101 366.667 533.333 366.667Z" fill="black"/>
<path d="M200 66.6667H266.667C285.075 66.6667 300 51.7415 300 33.3333C300 14.9251 285.075 0 266.667 0H200C181.592 0 166.667 14.9251 166.667 33.3333C166.667 51.7415 181.592 66.6667 200 66.6667Z" fill="black"/>
</svg>
