<svg width="619" height="685" viewBox="0 0 619 685" fill="none" xmlns="http://www.w3.org/2000/svg">
<path d="M42.5001 575.833V149.167C42.5001 111.83 42.5001 93.1614 49.7664 78.9008C56.1578 66.3564 66.3564 56.1578 78.9008 49.7664C93.1614 42.5001 111.83 42.5001 149.167 42.5001H469.167C506.503 42.5001 525.173 42.5001 539.433 49.7664C551.977 56.1578 562.177 66.3564 568.567 78.9008C575.833 93.1614 575.833 111.83 575.833 149.167V509.167H109.167C72.3478 509.167 42.5001 539.013 42.5001 575.833ZM42.5001 575.833C42.5001 612.653 72.3478 642.5 109.167 642.5H575.833M209.167 175.833H409.167M209.167 309.167H409.167M542.5 509.167V642.5" stroke="black" stroke-width="85" stroke-linecap="round" stroke-linejoin="round"/>
</svg>
