<svg width="20" height="20" viewBox="0 0 20 20" fill="none" xmlns="http://www.w3.org/2000/svg">
<path d="M10 0.5C11.2476 0.5 12.4831 0.745237 13.6357 1.22266C14.7883 1.70008 15.8356 2.40008 16.7178 3.28223C17.5999 4.16437 18.2999 5.21168 18.7773 6.36426C19.2548 7.51685 19.5 8.75244 19.5 10L19.4932 10.3516C19.4282 12.1073 18.8781 13.8136 17.8994 15.2783C16.8556 16.8405 15.3716 18.0583 13.6357 18.7773C11.8998 19.4964 9.9893 19.6839 8.14648 19.3174C6.30373 18.9508 4.61078 18.0463 3.28223 16.7178C1.95367 15.3892 1.0492 13.6963 0.682617 11.8535C0.316058 10.0107 0.5046 8.10016 1.22363 6.36426C1.94267 4.62855 3.15956 3.14438 4.72168 2.10059C6.28395 1.05671 8.12108 0.500001 10 0.5ZM13.2529 2.14746C11.6998 1.50413 9.9906 1.33514 8.3418 1.66309C6.69296 1.99106 5.178 2.80051 3.98926 3.98926C2.80051 5.178 1.99106 6.69296 1.66309 8.3418C1.33514 9.9906 1.50413 11.6998 2.14746 13.2529C2.79078 14.8059 3.87973 16.1335 5.27734 17.0674C6.67516 18.0014 8.31886 18.5 10 18.5C12.2543 18.5 14.4167 17.6048 16.0107 16.0107C17.6048 14.4167 18.5 12.2543 18.5 10C18.5 8.31886 18.0014 6.67516 17.0674 5.27734C16.1335 3.87973 14.8059 2.79078 13.2529 2.14746ZM10 4.5C10.1326 4.5 10.2597 4.55272 10.3535 4.64648C10.4473 4.74025 10.5 4.86739 10.5 5V9.86523L10.4814 10.0771C10.4801 10.0929 10.4769 10.1085 10.4707 10.123L10.4639 10.1396L10.458 10.1562C10.449 10.1822 10.4371 10.207 10.4229 10.2305L10.4102 10.251L10.3994 10.2734C10.3935 10.2857 10.3842 10.2961 10.377 10.3076L10.2744 10.3916L10.2549 10.4082L10.2363 10.4268L10.1943 10.4678L7.65332 11.9346C7.59617 11.967 7.53352 11.988 7.46875 11.9961L7.40332 12H7.39648C7.28578 12.0008 7.17789 11.9646 7.08984 11.8975C7.00187 11.8304 6.93874 11.7358 6.91016 11.6289C6.88163 11.522 6.88888 11.4087 6.93164 11.3066C6.97442 11.2046 7.05026 11.12 7.14648 11.0654L7.14941 11.0635L9.25 9.85352L9.5 9.70898V5C9.5 4.86739 9.55272 4.74025 9.64648 4.64648C9.74025 4.55272 9.86739 4.5 10 4.5Z" fill="black" stroke="black"/>
</svg>
