<svg width="24" height="24" viewBox="0 0 24 24" fill="none" xmlns="http://www.w3.org/2000/svg">
<path d="M6.5 6.5C7.32843 6.5 8 7.17157 8 8V16C8 16.8284 7.32843 17.5 6.5 17.5C5.67157 17.5 5 16.8284 5 16V8C5 7.17157 5.67157 6.5 6.5 6.5Z" fill="currentColor"/>
<path d="M17.5 6.5C18.3284 6.5 19 7.17157 19 8V16C19 16.8284 18.3284 17.5 17.5 17.5C16.6716 17.5 16 16.8284 16 16V8C16 7.17157 16.6716 6.5 17.5 6.5Z" fill="currentColor"/>
<path d="M2.75 9C3.44036 9 4 9.55964 4 10.25V13.75C4 14.4404 3.44036 15 2.75 15C2.05964 15 1.5 14.4404 1.5 13.75V10.25C1.5 9.55964 2.05964 9 2.75 9Z" fill="currentColor"/>
<path d="M21.25 9C21.9404 9 22.5 9.55964 22.5 10.25V13.75C22.5 14.4404 21.9404 15 21.25 15C20.5596 15 20 14.4404 20 13.75V10.25C20 9.55964 20.5596 9 21.25 9Z" fill="currentColor"/>
<rect x="9" y="10.75" width="6" height="2.5" rx="1.25" fill="currentColor"/>
</svg>
