<svg width="9" height="15" viewBox="0 0 9 15" fill="none" xmlns="http://www.w3.org/2000/svg">
<path d="M3.14418 7.85413C3.09762 7.80768 3.06067 7.75251 3.03547 7.69176C3.01026 7.63102 2.99729 7.5659 2.99729 7.50013C2.99729 7.43436 3.01026 7.36924 3.03547 7.30849C3.06067 7.24775 3.09762 7.19257 3.14418 7.14613L7.73017 2.56113C8.01157 2.27986 8.16971 1.89834 8.1698 1.50048C8.16989 1.10262 8.01193 0.721021 7.73067 0.439627C7.44941 0.158232 7.06789 9.38129e-05 6.67003 4.17261e-08C6.27217 -9.37294e-05 5.89057 0.157865 5.60918 0.439127L1.02318 5.02513C0.367954 5.68216 0 6.57221 0 7.50013C0 8.42804 0.367954 9.31809 1.02318 9.97513L5.60918 14.5611C5.89057 14.8424 6.27217 15.0003 6.67003 15.0003C7.06789 15.0002 7.44941 14.842 7.73067 14.5606C8.01193 14.2792 8.16989 13.8976 8.1698 13.4998C8.16971 13.1019 8.01157 12.7204 7.73017 12.4391L3.14418 7.85413Z" fill="#374957"/>
</svg>
