<svg width="534" height="667" viewBox="0 0 534 667" fill="none" xmlns="http://www.w3.org/2000/svg">
<path d="M166.667 100H100C63.181 100 33.3333 129.848 33.3333 166.667V566.667C33.3333 603.487 63.181 633.333 100 633.333H433.333C470.153 633.333 500 603.487 500 566.667V166.667C500 129.848 470.153 100 433.333 100H366.667" stroke="black" stroke-width="66.6667" stroke-linecap="round" stroke-linejoin="round"/>
<path d="M266.667 333.333H366.667" stroke="black" stroke-width="66.6667" stroke-linecap="round" stroke-linejoin="round"/>
<path d="M266.667 466.667H366.667" stroke="black" stroke-width="66.6667" stroke-linecap="round" stroke-linejoin="round"/>
<path d="M166.667 100C166.667 63.181 196.514 33.3333 233.333 33.3333H300C336.82 33.3333 366.667 63.181 366.667 100V166.667H166.667V100Z" stroke="black" stroke-width="66.6667" stroke-linecap="round" stroke-linejoin="round"/>
<path d="M166.667 366.667C185.076 366.667 200 351.743 200 333.333C200 314.924 185.076 300 166.667 300C148.257 300 133.333 314.924 133.333 333.333C133.333 351.743 148.257 366.667 166.667 366.667Z" fill="black"/>
<path d="M166.667 500C185.076 500 200 485.076 200 466.667C200 448.257 185.076 433.333 166.667 433.333C148.257 433.333 133.333 448.257 133.333 466.667C133.333 485.076 148.257 500 166.667 500Z" fill="black"/>
</svg>
