<svg width="20" height="16" viewBox="0 0 20 16" fill="none" xmlns="http://www.w3.org/2000/svg">
<path d="M3 0.5H17C17.663 0.5 18.2987 0.763581 18.7676 1.23242C19.2364 1.70126 19.5 2.33696 19.5 3V13L19.4873 13.2471C19.4305 13.8194 19.1778 14.3573 18.7676 14.7676C18.2987 15.2364 17.663 15.5 17 15.5H3C2.33696 15.5 1.70126 15.2364 1.23242 14.7676C0.763581 14.2987 0.5 13.663 0.5 13V3C0.5 2.33696 0.763581 1.70126 1.23242 1.23242C1.70126 0.763581 2.33696 0.5 3 0.5ZM1.5 13C1.5 13.3978 1.65815 13.7792 1.93945 14.0605C2.22076 14.3419 2.60218 14.5 3 14.5H17C17.3978 14.5 17.7792 14.3419 18.0605 14.0605C18.3419 13.7792 18.5 13.3978 18.5 13V4.39062L17.7402 4.85254L10.2305 9.41699C10.1546 9.4608 10.0681 9.48429 9.98047 9.48438C9.91477 9.48438 9.84939 9.47121 9.78906 9.44629L9.73047 9.41699L2.26074 4.85352L1.5 4.38867V13ZM3 1.5C2.60217 1.5 2.22076 1.65815 1.93945 1.93945C1.65815 2.22076 1.5 2.60217 1.5 3V3.28027L1.73926 3.42676L9.73926 8.30664L10 8.46582L10.2607 8.30664L18.2607 3.42676L18.5 3.28027V3C18.5 2.60218 18.3419 2.22076 18.0605 1.93945C17.7792 1.65815 17.3978 1.5 17 1.5H3Z" fill="black" stroke="black"/>
</svg>
