<svg width="24" height="22" viewBox="0 0 24 22" fill="none" xmlns="http://www.w3.org/2000/svg">
<path d="M22.0239 1.27474C21.4 0.754859 20.6686 0.379604 19.8825 0.175927C19.0963 -0.0277496 18.2748 -0.0547929 17.4769 0.0967395L14.1939 0.784739C13.3781 0.930654 12.6187 1.29962 11.9999 1.85074C11.394 1.30369 10.6478 0.935977 9.84488 0.78874L6.48388 0.0887395C5.69154 -0.0553424 4.87723 -0.0236639 4.09847 0.181537C3.31972 0.386737 2.59553 0.760453 1.97707 1.27628C1.35862 1.7921 0.860985 2.43745 0.519337 3.16673C0.177688 3.896 0.000360667 4.6914 -0.000116775 5.49674V15.2887C-0.00189976 16.5733 0.446667 17.8179 1.26756 18.806C2.08846 19.794 3.22973 20.4631 4.49288 20.6967L10.2999 21.8437C10.8588 21.9457 11.4258 21.9969 11.9939 21.9967C12.5734 21.9964 13.1518 21.9438 13.7219 21.8397L19.4839 20.6967C20.7504 20.4664 21.896 19.7992 22.7212 18.8112C23.5464 17.8232 23.9989 16.577 23.9999 15.2897V5.49674C24.0007 4.69109 23.824 3.89515 23.4825 3.16547C23.141 2.43578 22.643 1.79025 22.0239 1.27474ZM10.4999 18.8257L5.05288 17.7497C4.47676 17.645 3.95567 17.3414 3.58048 16.8919C3.20529 16.4423 2.99982 15.8753 2.99988 15.2897V5.49674C3.00172 4.8353 3.26488 4.20139 3.73203 3.73312C4.19918 3.26485 4.83245 3.00017 5.49388 2.99674C5.63272 2.99647 5.77129 3.00885 5.90788 3.03374L9.26888 3.73374C9.61424 3.79669 9.92658 3.97878 10.1515 4.2483C10.3764 4.51782 10.4997 4.85769 10.4999 5.20874V18.8257ZM20.9999 15.2897C20.9988 15.8788 20.7902 16.4487 20.4107 16.8993C20.0313 17.3499 19.5052 17.6524 18.9249 17.7537L13.4999 18.8257V5.20874C13.502 4.85112 13.6308 4.50583 13.8636 4.23428C14.0963 3.96273 14.4178 3.78254 14.7709 3.72574L18.0529 3.03874C18.413 2.97329 18.7831 2.98772 19.137 3.08101C19.491 3.17429 19.8201 3.34415 20.1012 3.57859C20.3823 3.81304 20.6084 4.10634 20.7637 4.43778C20.919 4.76922 20.9996 5.13072 20.9999 5.49674V15.2897Z" fill="#374957"/>
</svg>
