<svg width="15" height="13" viewBox="0 0 15 13" fill="none" xmlns="http://www.w3.org/2000/svg">
<path d="M13.561 4.02513L9.975 0.439127C9.69361 0.157865 9.31201 -9.37294e-05 8.91415 4.17261e-08C8.51629 9.38129e-05 8.13476 0.158232 7.8535 0.439627C7.57224 0.721021 7.41428 1.10262 7.41437 1.50048C7.41447 1.89834 7.57261 2.27986 7.854 2.56113L10.293 5.00013H1.5C1.10218 5.00013 0.720644 5.15816 0.43934 5.43947C0.158035 5.72077 0 6.1023 0 6.50013C0 6.89795 0.158035 7.27948 0.43934 7.56079C0.720644 7.84209 1.10218 8.00013 1.5 8.00013H10.293L7.854 10.4391C7.57261 10.7204 7.41447 11.1019 7.41437 11.4998C7.41428 11.8976 7.57224 12.2792 7.8535 12.5606C8.13476 12.842 8.51629 13.0002 8.91415 13.0003C9.31201 13.0003 9.69361 12.8424 9.975 12.5611L13.561 8.97513C14.2162 8.31809 14.5842 7.42804 14.5842 6.50013C14.5842 5.57221 14.2162 4.68216 13.561 4.02513Z" fill="#374957"/>
</svg>
